<?xml version="1.0" encoding="UTF-8"?><svg xmlns="http://www.w3.org/2000/svg" viewBox="0 0 186.28 23.3"><defs><style>.d{fill:#fb2103;}</style></defs><g id="a"/><g id="b"><g id="c"><g><path class="d" d="M0,7.28C0,2.55,4.48,0,10.47,0c3.81,0,7.76,.73,9.52,1.74l-1.06,4.76c-1.88-1.12-5.66-1.71-8.65-1.71-3.22,0-4.73,.67-4.73,1.85,0,3.86,15.12,.87,15.12,9.13,0,4-3.42,7.53-10.64,7.53-3.25,0-7.25-.34-9.58-1.43l.22-5.12c2.32,1.12,5.71,1.76,9.52,1.76s4.9-.87,4.9-1.9c0-3.61-15.09-.73-15.09-9.32Z"/><path class="d" d="M35.98,0c7.7,0,13.24,3.98,13.24,11.54s-5.99,11.76-13.27,11.76-13.33-3.95-13.33-11.73c0-7.34,5.46-11.56,13.35-11.56Zm-.08,18.59c4.4,0,7.56-2.24,7.56-7.17,0-4.48-3.16-6.72-7.53-6.72s-7.53,2.18-7.53,6.89,3.16,7,7.5,7Z"/><path class="d" d="M52.44,.45h5.6V17.53h13.69v5.32h-19.29V.45Z"/><path class="d" d="M91.03,18.42h-11.09l-1.82,4.42h-5.96L82.12,.45h7.17l9.55,22.4h-6.08l-1.74-4.42Zm-9.21-4.56h7.45l-3.47-8.85h-.37l-3.61,8.85Z"/><path class="d" d="M99.96,7.28c0-4.73,4.48-7.28,10.47-7.28,3.81,0,7.76,.73,9.52,1.74l-1.06,4.76c-1.88-1.12-5.65-1.71-8.65-1.71-3.22,0-4.73,.67-4.73,1.85,0,3.86,15.12,.87,15.12,9.13,0,4-3.42,7.53-10.64,7.53-3.25,0-7.25-.34-9.58-1.43l.22-5.12c2.32,1.12,5.71,1.76,9.52,1.76s4.9-.87,4.9-1.9c0-3.61-15.09-.73-15.09-9.32Z"/><path class="d" d="M123.84,.45h5.6V22.85h-5.6V.45Z"/><path class="d" d="M134.03,.45h11.98c6.61,0,11.7,4.62,11.7,11.2,0,6.19-5.1,11.2-11.7,11.2h-11.98V.45Zm5.6,5.04v12.32h6.38c4.42,0,6.05-3.19,6.05-6.16s-1.76-6.16-6.05-6.16h-6.38Z"/><path class="d" d="M173.04,0c7.7,0,13.24,3.98,13.24,11.54s-5.99,11.76-13.27,11.76-13.33-3.95-13.33-11.73c0-7.34,5.46-11.56,13.36-11.56Zm-.08,18.59c4.4,0,7.56-2.24,7.56-7.17,0-4.48-3.16-6.72-7.53-6.72s-7.53,2.18-7.53,6.89,3.16,7,7.5,7Z"/></g></g></g></svg>