<svg width="74" height="102" viewBox="0 0 74 102" fill="none" xmlns="http://www.w3.org/2000/svg">
<g clip-path="url(#clip0)">
<path d="M10.6012 75.339C13.8936 77.2086 17.662 78.1533 21.7875 78.1533C25.9129 78.1533 29.6813 77.2086 32.9836 75.339C36.286 73.4695 38.8941 70.8342 40.7387 67.5127C42.5733 64.2112 43.4956 60.4721 43.4956 56.375C43.4956 52.2779 42.5634 48.5388 40.7288 45.2372C38.8842 41.9257 36.2761 39.2805 32.9737 37.3811C29.6813 35.4817 25.9129 34.5271 21.7775 34.5271C17.6422 34.5271 13.8837 35.5016 10.5913 37.3911C7.28893 39.2904 4.67087 41.9257 2.80649 45.2372C0.942107 48.5388 0 52.2878 0 56.3849C0 60.4721 0.942107 64.2211 2.80649 67.5326C4.67087 70.8441 7.29885 73.4695 10.6012 75.339ZM9.24256 49.3542C10.4227 47.2858 12.0689 45.6947 14.2605 44.5013C16.4422 43.308 18.981 42.7113 21.7974 42.7113C24.6138 42.7113 27.1426 43.3179 29.3342 44.5013C31.5259 45.6947 33.1721 47.2758 34.3522 49.3542C35.5422 51.4326 36.1174 53.7397 36.1174 56.3849C36.1174 59.0301 35.5422 61.3273 34.3522 63.4156C33.1721 65.4841 31.5358 67.0553 29.3441 68.2188C27.1525 69.3823 24.6138 69.979 21.7974 69.979C18.981 69.979 16.4422 69.3922 14.2605 68.2188C12.0788 67.0553 10.4425 65.4841 9.25248 63.4156C8.06245 61.3273 7.47735 59.0301 7.47735 56.3849C7.46743 53.7397 8.05253 51.4425 9.24256 49.3542Z" fill="#E04222"/>
<path d="M74.0099 93.8953H0.386719V102H74.0099V93.8953Z" fill="#E04222"/>
<path d="M7.51707 14.2404C10.869 17.2635 15.3118 18.8049 20.7264 18.8049C23.7511 18.8049 26.6666 18.3375 29.4037 17.4028C32.1804 16.458 34.9076 15.3144 37.5058 14.0117C40.114 12.699 42.8213 11.4162 45.5385 10.1732C48.345 8.90026 51.1217 8.25388 53.7993 8.25388C57.0223 8.25388 59.68 9.36765 61.6932 11.5554C63.4088 13.415 64.9261 15.752 66.1954 18.5066L73.772 15.394C72.3737 11.0781 70.0432 7.43843 66.85 4.55455C63.508 1.53144 59.0652 0 53.6605 0C50.6259 0 47.7103 0.467388 44.9832 1.40216C42.1965 2.34689 39.4594 3.49049 36.8711 4.79321C34.1936 6.13571 31.4962 7.41854 28.8384 8.63176C26.0319 9.90465 23.2552 10.551 20.5776 10.551C17.3546 10.551 14.6969 9.43726 12.6838 7.24949C10.9682 5.38988 9.45087 3.05294 8.17158 0.288388L0.60498 3.40099C2.00327 7.71688 4.33374 11.3565 7.51707 14.2404Z" fill="#E04222"/>
</g>
<defs>
<clipPath id="clip0">
<rect width="74" height="102" fill="white"/>
</clipPath>
</defs>
</svg>
